<svg width="24" height="24" viewBox="0 0 24 24" fill="none" xmlns="http://www.w3.org/2000/svg">
<path d="M6.01 16.136L4.141 4H3C2.73478 4 2.48043 3.89464 2.29289 3.70711C2.10536 3.51957 2 3.26522 2 3C2 2.73478 2.10536 2.48043 2.29289 2.29289C2.48043 2.10536 2.73478 2 3 2H4.985C5.22624 1.99555 5.46086 2.07908 5.645 2.235C5.834 2.39394 5.9573 2.61736 5.991 2.862L6.319 5H14V7H6.627L7.857 15H17.256L18.756 10H20.844L18.958 16.287C18.8963 16.4931 18.7697 16.6738 18.5971 16.8022C18.4245 16.9307 18.2151 17 18 17H7.016C6.76792 17.0046 6.52711 16.9161 6.341 16.752C6.15961 16.5935 6.04169 16.3747 6.009 16.136H6.01ZM10 20C10 20.5304 9.78929 21.0391 9.41421 21.4142C9.03914 21.7893 8.53043 22 8 22C7.46957 22 6.96086 21.7893 6.58579 21.4142C6.21071 21.0391 6 20.5304 6 20C6 19.4696 6.21071 18.9609 6.58579 18.5858C6.96086 18.2107 7.46957 18 8 18C8.53043 18 9.03914 18.2107 9.41421 18.5858C9.78929 18.9609 10 19.4696 10 20ZM19 20C19 20.5304 18.7893 21.0391 18.4142 21.4142C18.0391 21.7893 17.5304 22 17 22C16.4696 22 15.9609 21.7893 15.5858 21.4142C15.2107 21.0391 15 20.5304 15 20C15 19.4696 15.2107 18.9609 15.5858 18.5858C15.9609 18.2107 16.4696 18 17 18C17.5304 18 18.0391 18.2107 18.4142 18.5858C18.7893 18.9609 19 19.4696 19 20ZM19 2C19.2652 2 19.5196 2.10536 19.7071 2.29289C19.8946 2.48043 20 2.73478 20 3V4H21C21.2652 4 21.5196 4.10536 21.7071 4.29289C21.8946 4.48043 22 4.73478 22 5C22 5.26522 21.8946 5.51957 21.7071 5.70711C21.5196 5.89464 21.2652 6 21 6H20V7C20 7.26522 19.8946 7.51957 19.7071 7.70711C19.5196 7.89464 19.2652 8 19 8C18.7348 8 18.4804 7.89464 18.2929 7.70711C18.1054 7.51957 18 7.26522 18 7V6H17C16.7348 6 16.4804 5.89464 16.2929 5.70711C16.1054 5.51957 16 5.26522 16 5C16 4.73478 16.1054 4.48043 16.2929 4.29289C16.4804 4.10536 16.7348 4 17 4H18V3C18 2.73478 18.1054 2.48043 18.2929 2.29289C18.4804 2.10536 18.7348 2 19 2Z" fill="black"/>
</svg>
