<svg width="24" height="25" viewBox="0 0 24 25" fill="none" xmlns="http://www.w3.org/2000/svg">
<path d="M23.2902 12.2993L13.303 1.02343L12.6335 0.267226C12.481 0.0960633 12.2747 0 12.0597 0C11.8447 0 11.6385 0.0960633 11.4859 0.267226L0.829289 12.2993C0.672996 12.4752 0.549475 12.6846 0.466018 12.9153C0.38256 13.146 0.340856 13.3932 0.343369 13.6424C0.353708 14.6701 1.11102 15.4905 2.02083 15.4905H3.11932V25H21.0001V15.4905H22.1219C22.5639 15.4905 22.98 15.2949 23.2928 14.9416C23.4468 14.7682 23.5688 14.5621 23.6517 14.335C23.7347 14.108 23.777 13.8646 23.7761 13.619C23.7761 13.1227 23.6029 12.6526 23.2902 12.2993ZM13.5072 22.8978H10.6123V16.9416H13.5072V22.8978ZM19.1392 13.3884V22.8978H15.1613V16.2409C15.1613 15.5956 14.6987 15.073 14.1275 15.073H9.99199C9.42077 15.073 8.95811 15.5956 8.95811 16.2409V22.8978H4.98029V13.3884H2.49899L12.0623 2.59423L12.6594 3.26868L21.6231 13.3884H19.1392Z" fill="#906C66"/>
</svg>
