<svg width="30" height="30" viewBox="0 0 30 30" fill="none" xmlns="http://www.w3.org/2000/svg">
<path d="M24.2642 9.01288C25.1753 15.4922 20.2646 20.9232 16.555 21.4453C12.8455 21.9674 6.62455 18.0762 5.71518 11.6203C5.54401 10.4025 5.61438 9.16293 5.92227 7.97233C6.23016 6.78174 6.76954 5.66344 7.50962 4.6813C8.2497 3.69916 9.17597 2.8724 10.2356 2.24823C11.2952 1.62407 12.4673 1.21471 13.6851 1.04355C14.9029 0.872379 16.1425 0.94275 17.3331 1.25064C18.5237 1.55853 19.642 2.09791 20.6241 2.83799C21.6062 3.57806 22.433 4.50434 23.0572 5.56393C23.6813 6.62352 24.0907 7.79568 24.2619 9.01347L24.2642 9.01288Z" stroke="#906C66" stroke-width="1.875" stroke-miterlimit="10"/>
<path d="M13.8316 18.0498C11.908 17.2881 9.90115 15.5244 9.01111 13.0424" stroke="#906C66" stroke-width="1.875" stroke-miterlimit="10" stroke-linecap="round"/>
<path d="M21.5449 29.0496C19.6213 28.2879 17.8354 26.7023 16.9453 24.2209" stroke="#906C66" stroke-width="1.875" stroke-miterlimit="10" stroke-linecap="round"/>
<path d="M15.6275 21.5748L15.0902 24.4816L18.7998 23.9602L17.482 21.3141L15.6275 21.5748Z" stroke="#906C66" stroke-width="1.875" stroke-linecap="round" stroke-linejoin="round"/>
</svg>
