<svg width="15" height="15" viewBox="0 0 15 15" fill="none" xmlns="http://www.w3.org/2000/svg">
<path fill-rule="evenodd" clip-rule="evenodd" d="M7.875 1C4.07812 1 1 4.07812 1 7.875C1 11.6719 4.07812 14.75 7.875 14.75C11.6719 14.75 14.75 11.6719 14.75 7.875C14.75 4.07812 11.6719 1 7.875 1ZM8.5 10.375C8.5 10.5408 8.43415 10.6997 8.31694 10.8169C8.19973 10.9342 8.04076 11 7.875 11C7.70924 11 7.55027 10.9342 7.43306 10.8169C7.31585 10.6997 7.25 10.5408 7.25 10.375V8.5H5.375C5.20924 8.5 5.05027 8.43415 4.93306 8.31694C4.81585 8.19973 4.75 8.04076 4.75 7.875C4.75 7.70924 4.81585 7.55027 4.93306 7.43306C5.05027 7.31585 5.20924 7.25 5.375 7.25H7.25V5.375C7.25 5.20924 7.31585 5.05027 7.43306 4.93306C7.55027 4.81585 7.70924 4.75 7.875 4.75C8.04076 4.75 8.19973 4.81585 8.31694 4.93306C8.43415 5.05027 8.5 5.20924 8.5 5.375V7.25H10.375C10.5408 7.25 10.6997 7.31585 10.8169 7.43306C10.9342 7.55027 11 7.70924 11 7.875C11 8.04076 10.9342 8.19973 10.8169 8.31694C10.6997 8.43415 10.5408 8.5 10.375 8.5H8.5V10.375Z" fill="black"/>
<path fill-rule="evenodd" clip-rule="evenodd" d="M7.875 1C4.07812 1 1 4.07812 1 7.875C1 11.6719 4.07812 14.75 7.875 14.75C11.6719 14.75 14.75 11.6719 14.75 7.875C14.75 4.07812 11.6719 1 7.875 1ZM8.5 10.375C8.5 10.5408 8.43415 10.6997 8.31694 10.8169C8.19973 10.9342 8.04076 11 7.875 11C7.70924 11 7.55027 10.9342 7.43306 10.8169C7.31585 10.6997 7.25 10.5408 7.25 10.375V8.5H5.375C5.20924 8.5 5.05027 8.43415 4.93306 8.31694C4.81585 8.19973 4.75 8.04076 4.75 7.875C4.75 7.70924 4.81585 7.55027 4.93306 7.43306C5.05027 7.31585 5.20924 7.25 5.375 7.25H7.25V5.375C7.25 5.20924 7.31585 5.05027 7.43306 4.93306C7.55027 4.81585 7.70924 4.75 7.875 4.75C8.04076 4.75 8.19973 4.81585 8.31694 4.93306C8.43415 5.05027 8.5 5.20924 8.5 5.375V7.25H10.375C10.5408 7.25 10.6997 7.31585 10.8169 7.43306C10.9342 7.55027 11 7.70924 11 7.875C11 8.04076 10.9342 8.19973 10.8169 8.31694C10.6997 8.43415 10.5408 8.5 10.375 8.5H8.5V10.375Z" fill="black"/>
</svg>
