<svg width="15" height="15" viewBox="0 0 15 15" fill="none" xmlns="http://www.w3.org/2000/svg">
<path d="M2.49999 3.75V12.9167C2.49611 13.077 2.52387 13.2365 2.58166 13.3861C2.63946 13.5357 2.72617 13.6725 2.83684 13.7886C2.9475 13.9046 3.07995 13.9978 3.22663 14.0627C3.3733 14.1275 3.53132 14.1629 3.69166 14.1667H11.2875C11.4496 14.1656 11.6099 14.1323 11.7589 14.0686C11.908 14.0049 12.0429 13.9122 12.1558 13.7959C12.2687 13.6795 12.3572 13.5418 12.4163 13.3909C12.4754 13.2399 12.5039 13.0787 12.5 12.9167V3.75H2.49999ZM6.24999 12.0833H5.41666V5.83333H6.24999V12.0833ZM9.58332 12.0833H8.74999V5.83333H9.58332V12.0833Z" fill="black"/>
<path d="M12.8041 2.08333H9.58329V1.66666C9.58329 1.44565 9.4955 1.23369 9.33922 1.07741C9.18293 0.921126 8.97097 0.833328 8.74996 0.833328H6.16663C5.96036 0.854056 5.76922 0.950924 5.63054 1.10501C5.49186 1.25911 5.41559 1.45936 5.41663 1.66666V2.08333H2.08329C1.97279 2.08333 1.86681 2.12723 1.78866 2.20537C1.71052 2.28351 1.66663 2.38949 1.66663 2.49999C1.66663 2.6105 1.71052 2.71648 1.78866 2.79462C1.86681 2.87276 1.97279 2.91666 2.08329 2.91666H12.8041C12.9146 2.91666 13.0206 2.87276 13.0988 2.79462C13.1769 2.71648 13.2208 2.6105 13.2208 2.49999C13.2208 2.38949 13.1769 2.28351 13.0988 2.20537C13.0206 2.12723 12.9146 2.08333 12.8041 2.08333Z" fill="black"/>
</svg>
